<svg width="180" height="40" viewBox="0 0 180 40" fill="none" xmlns="http://www.w3.org/2000/svg">
<path d="M61.2278 0.173096V13.9326H57.5595V3.36713H52.7669V13.9326H49.0986V0.173096H61.2278Z" fill="#DB2B21"/>
<path fill-rule="evenodd" clip-rule="evenodd" d="M66.238 13.8341C66.9902 13.9745 67.8756 14.0446 68.8942 14.0446C69.9149 14.0446 70.8029 13.9745 71.5568 13.8341C72.3107 13.694 72.9654 13.4423 73.5209 13.0793C74.0764 12.7167 74.5055 12.2016 74.8084 11.534C75.1117 10.8669 75.2633 10.021 75.2633 8.99684V5.10901C75.2633 4.08486 75.1108 3.23727 74.8062 2.5671C74.5017 1.89694 74.0725 1.38185 73.5183 1.02185C72.9646 0.662282 72.3107 0.411828 71.5568 0.27178C70.8029 0.131303 69.9149 0.0612793 68.8942 0.0612793C67.8756 0.0612793 66.9902 0.131303 66.238 0.27178C65.4853 0.411828 64.8324 0.662282 64.2782 1.02185C63.7244 1.38185 63.2944 1.89694 62.9881 2.5671C62.6822 3.23727 62.5293 4.08486 62.5293 5.10901V8.99684C62.5293 10.021 62.6818 10.8669 62.9864 11.534C63.291 12.2016 63.721 12.7167 64.276 13.0793C64.8315 13.4423 65.4853 13.694 66.238 13.8341ZM70.4729 10.7058C70.1219 10.8024 69.5957 10.851 68.8942 10.851C68.1982 10.851 67.678 10.8024 67.333 10.7058C66.9881 10.6087 66.7359 10.4016 66.5761 10.085C66.4163 9.76839 66.3273 9.27178 66.3097 8.59388V5.49436C66.3273 4.81947 66.4171 4.32543 66.5782 4.01183C66.7398 3.69822 66.9919 3.49374 67.3352 3.39794C67.6784 3.30257 68.1982 3.25445 68.8942 3.25445C69.4196 3.25445 69.8384 3.27808 70.1503 3.32405C70.4622 3.37044 70.7169 3.46753 70.9141 3.61531C71.1113 3.76309 71.2552 3.9839 71.3463 4.27818C71.4374 4.57245 71.4829 4.97756 71.4829 5.49436V8.59388C71.4829 9.26577 71.4021 9.76109 71.241 10.0807C71.0795 10.4003 70.8235 10.6087 70.4729 10.7058Z" fill="#DB2B21"/>
<path fill-rule="evenodd" clip-rule="evenodd" d="M76.4746 13.9323H80.1433V10.4122H83.3906C84.3551 10.4122 85.1417 10.3216 85.7508 10.1412C86.36 9.9603 86.8326 9.6729 87.1689 9.27896C87.5044 8.88459 87.7411 8.36135 87.8786 7.70922C88.0157 7.05667 88.0844 6.2254 88.0844 5.21629C88.0844 4.31156 87.9989 3.53915 87.8271 2.89863C87.6552 2.2581 87.3863 1.73915 87.0207 1.34221C86.6551 0.944833 86.1744 0.65099 85.5786 0.459821C84.9827 0.268651 84.2533 0.172852 83.3906 0.172852H76.4746V13.9323ZM82.6535 7.21863H80.1433V3.36688H82.6535C83.1273 3.36688 83.4809 3.42187 83.7137 3.53228C83.9465 3.64268 84.1029 3.82698 84.1832 4.0856C84.264 4.34378 84.3044 4.72097 84.3044 5.21629C84.3044 5.83147 84.2632 6.27395 84.1811 6.54459C84.099 6.81481 83.9487 6.99481 83.7292 7.08416C83.5101 7.17395 83.1514 7.21863 82.6535 7.21863Z" fill="#DB2B21"/>
<path d="M95.2043 3.36688V13.9328H91.536V3.36688H88.0107V0.172852H98.9083V3.36688H95.2043Z" fill="#DB2B21"/>
<path fill-rule="evenodd" clip-rule="evenodd" d="M102.723 11.5678H107.658L108.375 13.9328H112.12L107.936 0.172852H102.355L98.2305 13.9328H102.046L102.723 11.5678ZM105.217 2.92311L106.924 8.88932H103.511L105.181 2.92311H105.217Z" fill="#DB2B21"/>
<path d="M114.098 0.173096H125.251V13.9326H121.565V3.36713H117.583V9.14474C117.583 10.1629 117.434 11.038 117.135 11.7696C116.836 12.5012 116.381 13.0631 115.769 13.4557C115.157 13.8484 114.398 14.0447 113.494 14.0447C112.831 14.0447 112.207 13.9893 111.621 13.8789V10.9048C111.878 10.9916 112.251 11.035 112.741 11.035C113.243 11.035 113.594 10.8988 113.796 10.6273C113.998 10.3558 114.098 9.87935 114.098 9.19844V0.173096Z" fill="#DB2B21"/>
<path d="M49.124 19.5454H59.1821V32.0024H57.7997V20.7934H50.506V32.0024H49.124V19.5454Z" fill="#9D9D9C"/>
<path fill-rule="evenodd" clip-rule="evenodd" d="M61.7482 20.5947C61.3676 21.0445 61.0978 21.676 60.9397 22.4888C60.7812 23.302 60.7021 24.397 60.7021 25.7739C60.7021 27.1426 60.7803 28.2324 60.9376 29.0427C61.0948 29.8529 61.3642 30.4831 61.7465 30.9333C62.1284 31.3831 62.6478 31.6963 63.3051 31.8724C63.9619 32.0481 64.8361 32.1366 65.9282 32.1366C67.0279 32.1366 67.9099 32.0481 68.5736 31.8724C69.2373 31.6963 69.7584 31.3844 70.1365 30.9372C70.5141 30.49 70.7817 29.8585 70.939 29.0427C71.0962 28.2269 71.1748 27.137 71.1748 25.7739C71.1748 24.4026 71.0975 23.3084 70.9428 22.4909C70.7886 21.6738 70.5218 21.041 70.1425 20.5925C69.7632 20.1436 69.2463 19.8322 68.5921 19.6573C67.9378 19.4825 67.0606 19.3953 65.9604 19.3953C64.8525 19.3953 63.9688 19.4825 63.3089 19.6573C62.6491 19.8322 62.1288 20.1445 61.7482 20.5947ZM62.7522 29.9959C62.4961 29.6424 62.3234 29.1445 62.2341 28.5018C62.1447 27.8596 62.1 26.9501 62.1 25.7739C62.1 24.5706 62.1421 23.6504 62.2255 23.0137C62.3097 22.3766 62.4798 21.8809 62.7358 21.5273C62.9919 21.1738 63.3631 20.9324 63.8494 20.8039C64.3357 20.675 65.0342 20.6106 65.9445 20.6106C66.8466 20.6106 67.5409 20.675 68.0272 20.8039C68.5135 20.9324 68.8838 21.1729 69.1385 21.5252C69.3937 21.8779 69.563 22.3732 69.6463 23.0116C69.7305 23.65 69.7726 24.5706 69.7726 25.7739C69.7726 26.9664 69.7292 27.8806 69.6429 28.516C69.5557 29.1518 69.386 29.6458 69.1325 29.9977C68.879 30.3503 68.5066 30.5922 68.0151 30.7237C67.5232 30.8551 66.8333 30.9208 65.9445 30.9208C65.0587 30.9208 64.3687 30.8551 63.8756 30.7237C63.3828 30.5922 63.0082 30.3495 62.7522 29.9959Z" fill="#9D9D9C"/>
<path d="M80.6778 27.8391H82.0276C82.0276 28.9479 81.8854 29.8075 81.6006 30.4184C81.3157 31.0297 80.82 31.4692 80.1124 31.736C79.4053 32.0028 78.3958 32.1364 77.0838 32.1364C76.0889 32.1364 75.2829 32.0491 74.6648 31.8743C74.047 31.6995 73.55 31.3897 73.1749 30.9451C72.7995 30.5005 72.5271 29.8664 72.3574 29.0424C72.1881 28.2185 72.1035 27.1397 72.1035 25.8063C72.1035 24.4784 72.1869 23.3997 72.3535 22.5702C72.5202 21.741 72.7926 21.0958 73.1706 20.6348C73.5487 20.1743 74.0487 19.8525 74.6708 19.6695C75.2928 19.4865 76.097 19.395 77.0838 19.395C78.0676 19.395 78.8658 19.4749 79.4784 19.6347C80.091 19.795 80.5622 20.0403 80.893 20.3706C81.2238 20.7014 81.4566 21.1112 81.5924 21.601C81.7277 22.0899 81.8175 22.7205 81.8605 23.4929L80.515 23.477C80.4282 22.6556 80.3058 22.0576 80.1472 21.6817C79.9887 21.3067 79.6816 21.0344 79.2262 20.8647C78.7708 20.6954 78.0568 20.6103 77.0838 20.6103C76.3466 20.6103 75.7525 20.6829 75.301 20.8281C74.8499 20.9733 74.4929 21.2307 74.2296 21.601C73.9667 21.9704 73.7798 22.4902 73.669 23.1596C73.5573 23.8293 73.5018 24.7112 73.5018 25.8063C73.5018 26.9151 73.5564 27.7949 73.6647 28.447C73.7729 29.0991 73.9585 29.606 74.2218 29.9695C74.4843 30.3329 74.8409 30.5821 75.2907 30.7174C75.7409 30.8532 76.338 30.9206 77.0838 30.9206C77.8373 30.9206 78.4452 30.8738 78.907 30.7806C79.3692 30.6869 79.7292 30.528 79.9866 30.3028C80.2439 30.0777 80.4235 29.771 80.5253 29.3818C80.6267 28.993 80.6778 28.4788 80.6778 27.8391" fill="#9D9D9C"/>
<path d="M86.3111 32.0021V20.7935H82.2295V19.5288H91.7545L91.7381 20.7935H87.7094V32.0021H86.3111Z" fill="#9D9D9C"/>
<path fill-rule="evenodd" clip-rule="evenodd" d="M96.6031 19.5293L92.0537 32.0021H93.5539L94.5544 29.437H100.848L101.783 32.0021H103.262L98.6158 19.5293H96.6031ZM97.6354 20.562L100.4 28.2213H94.8873L97.6354 20.562Z" fill="#9D9D9C"/>
<path fill-rule="evenodd" clip-rule="evenodd" d="M104.378 32.0023H110.737C111.886 32.0023 112.703 31.7007 113.19 31.0976C113.677 30.4944 113.92 29.6022 113.92 28.4204C113.92 27.8297 113.872 27.3494 113.774 26.9791C113.676 26.6092 113.488 26.3003 113.211 26.0524C112.932 25.8041 112.526 25.6057 111.989 25.4566C112.439 25.2968 112.778 25.0867 113.005 24.8264C113.233 24.5665 113.381 24.2649 113.45 23.9221C113.52 23.5793 113.554 23.1419 113.554 22.611C113.554 21.5052 113.299 20.7147 112.79 20.2405C112.28 19.7662 111.48 19.5291 110.388 19.5291H104.378V32.0023ZM105.76 20.7611V24.9729H109.725C110.351 24.9729 110.838 24.9089 111.186 24.7817C111.534 24.6545 111.783 24.4294 111.932 24.1068C112.081 23.7842 112.156 23.3249 112.156 22.7287C112.156 21.967 112.02 21.4489 111.751 21.1735C111.481 20.8986 110.973 20.7611 110.225 20.7611H105.76ZM105.76 26.1886V30.7539H109.607C110.203 30.7539 110.674 30.7294 111.021 30.6809C111.368 30.6319 111.654 30.5318 111.877 30.3802C112.101 30.2281 112.264 30.0034 112.367 29.7053C112.47 29.4071 112.521 29.0016 112.521 28.4895C112.521 27.8121 112.454 27.312 112.32 26.9894C112.186 26.6668 111.961 26.4528 111.643 26.3471C111.326 26.2415 110.841 26.1886 110.188 26.1886H105.76Z" fill="#9D9D9C"/>
<path d="M123.246 19.5291H124.628V30.7539H130.97V19.5291H132.352V30.7539H133.235V34.8686H132.003V32.0023H115.501V19.5291H116.883V30.7539H123.246V19.5291Z" fill="#9D9D9C"/>
<path d="M134.603 19.5291H135.985V31.0551L143.075 19.5291H145.291V32.0023H143.908V20.5944L136.798 32.0023H134.603V19.5291Z" fill="#9D9D9C"/>
<path d="M148.705 19.5291V24.9729H149.953L155.031 19.5291H156.897L151.168 25.5563L157.563 32.0023H155.649L149.936 26.2045H148.705V32.0023H147.322V19.5291H148.705Z" fill="#9D9D9C"/>
<path fill-rule="evenodd" clip-rule="evenodd" d="M159.096 20.5947C158.715 21.0445 158.445 21.676 158.287 22.4888C158.129 23.302 158.05 24.397 158.05 25.7739C158.05 27.1426 158.128 28.2324 158.285 29.0427C158.442 29.8529 158.712 30.4831 159.094 30.9333C159.476 31.3831 159.995 31.6963 160.653 31.8724C161.31 32.0481 162.184 32.1366 163.276 32.1366C164.376 32.1366 165.258 32.0481 165.922 31.8724C166.585 31.6963 167.106 31.3844 167.484 30.9372C167.862 30.49 168.129 29.8585 168.287 29.0427C168.444 28.2269 168.522 27.137 168.522 25.7739C168.522 24.4026 168.445 23.3084 168.29 22.4909C168.136 21.6738 167.869 21.041 167.49 20.5925C167.111 20.1436 166.594 19.8322 165.94 19.6573C165.285 19.4825 164.408 19.3953 163.308 19.3953C162.201 19.3953 161.316 19.4825 160.657 19.6573C159.997 19.8322 159.476 20.1445 159.096 20.5947ZM160.1 29.9959C159.844 29.6424 159.671 29.1445 159.582 28.5018C159.492 27.8596 159.448 26.9501 159.448 25.7739C159.448 24.5706 159.489 23.6504 159.573 23.0137C159.658 22.3766 159.827 21.8809 160.084 21.5273C160.34 21.1738 160.711 20.9324 161.197 20.8039C161.684 20.675 162.382 20.6106 163.292 20.6106C164.194 20.6106 164.889 20.675 165.374 20.8039C165.861 20.9324 166.231 21.1729 166.486 21.5252C166.741 21.8779 166.911 22.3732 166.994 23.0116C167.078 23.65 167.12 24.5706 167.12 25.7739C167.12 26.9664 167.077 27.8806 166.99 28.516C166.904 29.1518 166.733 29.6458 166.481 29.9977C166.227 30.3503 165.855 30.5922 165.362 30.7237C164.871 30.8551 164.181 30.9208 163.292 30.9208C162.406 30.9208 161.717 30.8551 161.223 30.7237C160.73 30.5922 160.356 30.3495 160.1 29.9959Z" fill="#9D9D9C"/>
<path fill-rule="evenodd" clip-rule="evenodd" d="M169.936 32.0023H176.294C177.443 32.0023 178.261 31.7007 178.747 31.0976C179.234 30.4944 179.477 29.6022 179.477 28.4204C179.477 27.8297 179.429 27.3494 179.331 26.9791C179.234 26.6092 179.046 26.3003 178.768 26.0524C178.49 25.8041 178.083 25.6057 177.546 25.4566C177.996 25.2968 178.335 25.0867 178.563 24.8264C178.79 24.5665 178.939 24.2649 179.007 23.9221C179.077 23.5793 179.112 23.1419 179.112 22.611C179.112 21.5052 178.857 20.7147 178.347 20.2405C177.838 19.7662 177.037 19.5291 175.945 19.5291H169.936V32.0023ZM171.318 20.7611V24.9729H175.282C175.908 24.9729 176.395 24.9089 176.743 24.7817C177.091 24.6545 177.34 24.4294 177.489 24.1068C177.638 23.7842 177.713 23.3249 177.713 22.7287C177.713 21.967 177.578 21.4489 177.308 21.1735C177.038 20.8986 176.53 20.7611 175.782 20.7611H171.318ZM171.318 26.1886V30.7539H175.164C175.76 30.7539 176.231 30.7294 176.578 30.6809C176.925 30.6319 177.211 30.5318 177.434 30.3802C177.658 30.2281 177.821 30.0034 177.924 29.7053C178.027 29.4071 178.079 29.0016 178.079 28.4895C178.079 27.8121 178.012 27.312 177.878 26.9894C177.743 26.6668 177.518 26.4528 177.2 26.3471C176.883 26.2415 176.398 26.1886 175.745 26.1886H171.318Z" fill="#9D9D9C"/>
<path fill-rule="evenodd" clip-rule="evenodd" d="M6.76267 32.8506H26.1284V13.4853H6.76267V32.8506ZM0 6.72309L0.000429594 39.6133H32.8906V6.72266L0 6.72309Z" fill="#9D9D9C"/>
<path fill-rule="evenodd" clip-rule="evenodd" d="M13.4859 26.1279H32.8511V6.76267H13.4859V26.1279ZM6.72363 32.8902H39.6134V0H6.72363V32.8902Z" fill="#C92723"/>
<path d="M32.8902 39.6133L26.1279 32.8901V6.76261L32.8902 6.72266V39.6133Z" fill="#9D9D9C"/>
</svg>
