<svg width="16" height="16" viewBox="0 0 16 16" fill="none" xmlns="http://www.w3.org/2000/svg">
<path d="M10.4483 4.65001L6.05767 9.04068C5.93033 9.16367 5.82875 9.3108 5.75887 9.47347C5.68899 9.63614 5.65221 9.8111 5.65067 9.98814C5.64913 10.1652 5.68287 10.3408 5.74991 10.5046C5.81695 10.6685 5.91596 10.8173 6.04115 10.9425C6.16634 11.0677 6.31521 11.1667 6.47907 11.2338C6.64293 11.3008 6.8185 11.3346 6.99554 11.333C7.17258 11.3315 7.34754 11.2947 7.51021 11.2248C7.67288 11.1549 7.82001 11.0534 7.94301 10.926L12.219 6.53535C12.7048 6.03241 12.9735 5.3588 12.9675 4.65961C12.9614 3.96042 12.6809 3.29158 12.1865 2.79716C11.6921 2.30274 11.0233 2.02229 10.3241 2.01621C9.62488 2.01014 8.95128 2.27892 8.44834 2.76468L4.17167 7.15468C3.42146 7.90489 3 8.92239 3 9.98335C3 11.0443 3.42146 12.0618 4.17167 12.812C4.92188 13.5622 5.93938 13.9837 7.00034 13.9837C8.06129 13.9837 9.0788 13.5622 9.82901 12.812L14.0003 8.65001" stroke="#333333" stroke-width="1.5" stroke-linecap="round" stroke-linejoin="round"/>
</svg>
