<svg width="16" height="16" viewBox="0 0 16 16" fill="none" xmlns="http://www.w3.org/2000/svg">
<path fill-rule="evenodd" clip-rule="evenodd" d="M7.50009 4.99997C7.50009 5.3978 7.34206 5.77933 7.06075 6.06064C6.77945 6.34194 6.39792 6.49998 6.00009 6.49998C5.60227 6.49998 5.22074 6.34194 4.93943 6.06064C4.65813 5.77933 4.50009 5.3978 4.50009 4.99997C4.50009 4.60215 4.65813 4.22062 4.93943 3.93931C5.22074 3.65801 5.60227 3.49997 6.00009 3.49997C6.39792 3.49997 6.77945 3.65801 7.06075 3.93931C7.34206 4.22062 7.50009 4.60215 7.50009 4.99997ZM8.90509 5.74997C8.73828 6.39353 8.36249 6.96348 7.83671 7.37036C7.31093 7.77723 6.66492 7.998 6.00009 7.998C5.33527 7.998 4.68926 7.77723 4.16348 7.37036C3.6377 6.96348 3.2619 6.39353 3.09509 5.74997H1.74709C1.54818 5.74997 1.35742 5.67096 1.21676 5.53031C1.07611 5.38965 0.997094 5.19889 0.997094 4.99997C0.997094 4.80106 1.07611 4.6103 1.21676 4.46964C1.35742 4.32899 1.54818 4.24997 1.74709 4.24997H3.09509C3.2619 3.60642 3.6377 3.03647 4.16348 2.62959C4.68926 2.22272 5.33527 2.00195 6.00009 2.00195C6.66492 2.00195 7.31093 2.22272 7.83671 2.62959C8.36249 3.03647 8.73828 3.60642 8.90509 4.24997H14.2501C14.449 4.24997 14.6398 4.32899 14.7804 4.46964C14.9211 4.6103 15.0001 4.80106 15.0001 4.99997C15.0001 5.19889 14.9211 5.38965 14.7804 5.53031C14.6398 5.67096 14.449 5.74997 14.2501 5.74997H8.90509ZM1.74709 10.25H7.09209C7.25856 9.60597 7.63427 9.03553 8.16019 8.62827C8.68611 8.22101 9.33243 8.00002 9.99759 8.00002C10.6628 8.00002 11.3091 8.22101 11.835 8.62827C12.3609 9.03553 12.7366 9.60597 12.9031 10.25H14.2501C14.449 10.25 14.6398 10.329 14.7804 10.4696C14.9211 10.6103 15.0001 10.8011 15.0001 11C15.0001 11.1989 14.9211 11.3897 14.7804 11.5303C14.6398 11.671 14.449 11.75 14.2501 11.75H12.9031C12.7363 12.3935 12.3605 12.9635 11.8347 13.3704C11.3089 13.7772 10.6629 13.998 9.99809 13.998C9.33327 13.998 8.68726 13.7772 8.16148 13.3704C7.6357 12.9635 7.2599 12.3935 7.09309 11.75H1.74609C1.54718 11.75 1.35642 11.671 1.21576 11.5303C1.07511 11.3897 0.996094 11.1989 0.996094 11C0.996094 10.8011 1.07511 10.6103 1.21576 10.4696C1.35642 10.329 1.54818 10.25 1.74709 10.25ZM9.99609 9.49998C9.79911 9.49998 9.60406 9.53877 9.42207 9.61416C9.24008 9.68954 9.07472 9.80003 8.93543 9.93931C8.79615 10.0786 8.68566 10.244 8.61027 10.426C8.53489 10.6079 8.49609 10.803 8.49609 11C8.49609 11.197 8.53489 11.392 8.61027 11.574C8.68566 11.756 8.79615 11.9213 8.93543 12.0606C9.07472 12.1999 9.24008 12.3104 9.42207 12.3858C9.60406 12.4612 9.79911 12.5 9.99609 12.5C10.3939 12.5 10.7754 12.3419 11.0568 12.0606C11.3381 11.7793 11.4961 11.3978 11.4961 11C11.4961 10.6022 11.3381 10.2206 11.0568 9.93931C10.7754 9.65801 10.3939 9.49998 9.99609 9.49998Z" fill="white"/>
</svg>
